<svg width="678" height="422" viewBox="0 0 678 422" fill="none" xmlns="http://www.w3.org/2000/svg">
<path d="M433.887 408.614C436.296 407.263 439.003 406.533 441.764 406.488C444.525 406.443 447.254 407.085 449.705 408.356C452.157 409.627 454.254 411.488 455.808 413.771C457.361 416.054 458.324 418.687 458.607 421.434C448.507 421.434 438.607 419.084 433.887 408.614Z" fill="#EBEBEB"/>
<path d="M445.657 398.264C449.053 399.376 452.673 399.627 456.189 398.993C459.706 398.36 463.011 396.862 465.805 394.635C468.6 392.407 470.797 389.52 472.199 386.233C473.601 382.946 474.164 379.362 473.837 375.804C461.007 378.314 448.967 383.804 445.657 398.264Z" fill="#EBEBEB"/>
<path d="M401.687 415.344C401.895 415.247 402.109 415.164 402.327 415.094L404.167 414.474C405.767 413.954 408.087 413.194 410.937 412.204C416.647 410.204 424.477 407.374 432.937 403.694C437.147 401.844 441.107 399.964 444.667 398.164C448.227 396.364 451.347 394.584 453.917 393.014C455.948 391.793 457.908 390.458 459.787 389.014C461.107 388.014 461.787 387.304 461.787 387.344C461.653 387.527 461.499 387.695 461.327 387.844C460.881 388.319 460.403 388.763 459.897 389.174C458.057 390.699 456.116 392.099 454.087 393.364C451.537 394.984 448.407 396.774 444.867 398.634C441.327 400.494 437.347 402.354 433.117 404.214C424.667 407.894 416.797 410.714 411.057 412.594C408.187 413.544 405.847 414.244 404.227 414.704L402.357 415.234C402.139 415.298 401.914 415.335 401.687 415.344Z" fill="#E0E0E0"/>
<path d="M446.857 414.484C446.857 414.564 445.637 413.744 443.627 412.654C441.002 411.245 438.228 410.132 435.357 409.334C432.478 408.552 429.519 408.099 426.537 407.984C424.257 407.894 422.827 407.984 422.827 407.904C423.153 407.808 423.489 407.754 423.827 407.744C424.734 407.647 425.646 407.604 426.557 407.614C432.626 407.64 438.58 409.268 443.817 412.334C444.604 412.795 445.366 413.299 446.097 413.844C446.378 414.023 446.633 414.238 446.857 414.484Z" fill="#E0E0E0"/>
<path d="M208.627 369.524C207.403 372.784 207.008 376.297 207.478 379.748C207.949 383.198 209.27 386.478 211.323 389.291C213.377 392.103 216.097 394.362 219.24 395.862C222.383 397.362 225.849 398.057 229.327 397.884C227.417 385.294 222.567 373.344 208.627 369.524Z" fill="#EBEBEB"/>
<path d="M206.657 363.344C206.737 363.344 207.077 364.724 207.807 366.914C209.686 372.639 212.549 377.992 216.267 382.734C217.697 384.554 218.667 385.614 218.607 385.674C218.547 385.734 218.307 385.454 217.847 385.004C217.387 384.554 216.737 383.854 215.987 383.004C214.031 380.675 212.319 378.152 210.877 375.474C209.443 372.793 208.29 369.972 207.437 367.054C207.117 365.934 206.887 365.054 206.777 364.384C206.682 364.046 206.642 363.695 206.657 363.344Z" fill="#E0E0E0"/>
<path d="M8.78718 117.184C6.94385 122.243 6.36113 127.675 7.08946 133.011C7.81779 138.346 9.83522 143.423 12.9672 147.804C16.1831 152.123 20.4041 155.593 25.2641 157.912C30.1241 160.231 35.4765 161.33 40.8572 161.114C37.8572 141.614 30.3872 123.114 8.78718 117.184Z" fill="#EBEBEB"/>
<path d="M5.72729 107.614C5.93046 108.095 6.08783 108.593 6.19729 109.104C6.45729 110.104 6.8673 111.464 7.41729 113.174C8.86496 117.611 10.6952 121.914 12.8873 126.034C15.1039 130.145 17.6771 134.053 20.5773 137.714C21.6973 139.114 22.6273 140.234 23.2873 140.984C23.6543 141.362 23.9888 141.77 24.2873 142.204C23.877 141.877 23.4956 141.516 23.1473 141.124C22.4373 140.414 21.4573 139.324 20.3073 137.944C17.2991 134.331 14.6624 130.425 12.4373 126.284C10.2238 122.139 8.42833 117.784 7.07729 113.284C6.56729 111.554 6.20729 110.144 6.00729 109.154C5.87728 108.648 5.7837 108.133 5.72729 107.614Z" fill="#E0E0E0"/>
<path d="M42.5773 316.234C39.8657 318.417 37.7395 321.241 36.3899 324.45C35.0403 327.659 34.5098 331.153 34.846 334.618C35.1822 338.084 36.3746 341.411 38.3159 344.301C40.2572 347.191 42.8866 349.552 45.9673 351.174C50.7173 339.364 52.6373 326.614 42.5773 316.234Z" fill="#EBEBEB"/>
<path d="M44.0173 309.914C44.0973 309.914 43.6873 311.314 43.1973 313.574C42.5556 316.512 42.1675 319.499 42.0373 322.504C41.9187 325.51 42.0559 328.521 42.4473 331.504C42.7473 333.804 43.0473 335.204 42.9573 335.224C42.814 334.904 42.7099 334.568 42.6473 334.224C42.4773 333.604 42.2773 332.684 42.0773 331.534C41.0753 325.519 41.3341 319.362 42.8373 313.454C43.1273 312.324 43.4073 311.454 43.6273 310.814C43.7205 310.499 43.8514 310.197 44.0173 309.914Z" fill="#E0E0E0"/>
<path d="M228.157 63.3736C231.275 64.9257 234.73 65.6782 238.21 65.5631C241.691 65.4481 245.088 64.4692 248.097 62.7146C251.105 60.96 253.63 58.4847 255.444 55.5118C257.257 52.5388 258.303 49.1613 258.487 45.6836C245.767 46.3036 233.387 49.8936 228.157 63.3736Z" fill="#EBEBEB"/>
<path d="M221.807 64.6936C221.807 64.6136 223.227 64.4136 225.477 63.9136C228.415 63.2651 231.292 62.3686 234.077 61.2336C236.856 60.0846 239.532 58.703 242.077 57.1036C244.077 55.8736 245.187 55.0136 245.237 55.1036C245.287 55.1936 244.997 55.3736 244.497 55.7836C243.997 56.1936 243.237 56.7836 242.277 57.4336C237.236 60.8539 231.539 63.1898 225.547 64.2936C224.397 64.5036 223.467 64.6336 222.817 64.6836C222.483 64.738 222.143 64.7414 221.807 64.6936Z" fill="#E0E0E0"/>
<path d="M202.267 61.5538C206.736 60.5448 210.891 58.4635 214.376 55.4895C217.86 52.5155 220.569 48.7383 222.267 44.4838C223.88 40.1934 224.424 35.5745 223.851 31.0268C223.277 26.4791 221.605 22.1396 218.977 18.3838C206.377 29.4738 196.557 43.3838 202.257 61.5538" fill="#EBEBEB"/>
<path d="M196.787 68.1336C197.035 67.7746 197.317 67.4398 197.627 67.1336C198.197 66.5036 199.007 65.5636 199.967 64.3836C202.479 61.3074 204.717 58.0183 206.657 54.5536C208.583 51.0534 210.203 47.3931 211.497 43.6136C211.997 42.1736 212.367 40.9936 212.607 40.1736C212.708 39.7401 212.852 39.3179 213.037 38.9136C213.007 39.3579 212.926 39.7973 212.797 40.2236C212.627 41.0636 212.297 42.2236 211.847 43.7336C210.644 47.5498 209.06 51.2351 207.117 54.7336C205.17 58.2476 202.875 61.5575 200.267 64.6136C199.267 65.7636 198.407 66.6736 197.787 67.2636C197.486 67.5889 197.151 67.8806 196.787 68.1336Z" fill="#E0E0E0"/>
<path d="M284.267 404.114C285.216 405.982 286.613 407.585 288.334 408.78C290.056 409.975 292.047 410.723 294.129 410.958C296.211 411.193 298.318 410.907 300.263 410.126C302.207 409.345 303.926 408.094 305.267 406.484C298.907 402.204 291.637 399.484 284.267 404.114Z" fill="#EBEBEB"/>
<path d="M280.727 402.474C283.067 403.51 285.472 404.392 287.927 405.114C290.427 405.66 292.958 406.044 295.507 406.264C294.761 406.414 293.996 406.458 293.237 406.394C289.554 406.281 285.941 405.356 282.657 403.684C281.955 403.384 281.303 402.975 280.727 402.474Z" fill="#E0E0E0"/>
<path d="M376.967 45.0737C378.258 46.7271 379.939 48.0335 381.86 48.875C383.782 49.7166 385.882 50.0668 387.972 49.8942C390.062 49.7216 392.077 49.0315 393.834 47.8862C395.591 46.7409 397.036 45.1764 398.037 43.3337C390.967 40.3337 383.307 39.1137 376.967 45.0737Z" fill="#EBEBEB"/>
<path d="M373.177 44.1538C375.671 44.7201 378.2 45.121 380.747 45.3538C383.306 45.4062 385.864 45.2893 388.407 45.0038C387.709 45.311 386.966 45.5035 386.207 45.5738C382.56 46.1843 378.824 45.9759 375.267 44.9638C374.534 44.7996 373.83 44.5266 373.177 44.1538Z" fill="#E0E0E0"/>
<path d="M617.207 75.8436C620.563 76.7672 624.095 76.8424 627.487 76.0624C630.879 75.2824 634.023 73.6717 636.638 71.3751C639.253 69.0785 641.256 66.168 642.467 62.9054C643.679 59.6427 644.06 56.1302 643.577 52.6836C631.217 55.6836 619.757 61.6136 617.207 75.8436Z" fill="#EBEBEB"/>
<path d="M611.267 78.3536C611.267 78.2736 612.597 77.8036 614.717 76.8836C620.258 74.504 625.336 71.1663 629.717 67.0236C631.407 65.4436 632.367 64.3736 632.437 64.4336C632.276 64.733 632.074 65.0089 631.837 65.2536C631.427 65.7536 630.837 66.4536 629.977 67.2536C625.691 71.5871 620.544 74.9733 614.867 77.1936C613.787 77.6136 612.867 77.9236 612.267 78.0936C611.948 78.228 611.611 78.3156 611.267 78.3536Z" fill="#E0E0E0"/>
<path d="M640.867 380.614C646.768 379.249 652.236 376.44 656.781 372.438C661.326 368.435 664.806 363.366 666.906 357.686C669.006 352.006 669.662 345.893 668.814 339.897C667.966 333.9 665.641 328.209 662.047 323.334C645.647 338.224 632.987 356.734 640.867 380.614Z" fill="#EBEBEB"/>
<path d="M633.807 389.424C634.151 388.947 634.525 388.492 634.927 388.064C635.677 387.224 636.727 385.974 637.977 384.404C639.227 382.834 640.667 380.904 642.157 378.704C643.647 376.504 645.157 373.994 646.627 371.294C648.097 368.594 649.297 365.934 650.327 363.484C651.357 361.034 652.167 358.764 652.777 356.844C653.387 354.924 653.847 353.364 654.137 352.274C654.265 351.701 654.438 351.139 654.657 350.594C654.593 351.178 654.487 351.756 654.337 352.324C654.107 353.434 653.697 355.014 653.127 356.954C652.557 358.894 651.767 361.174 650.777 363.664C649.787 366.154 648.537 368.814 647.087 371.544C645.703 374.095 644.191 376.574 642.557 378.974C641.027 381.174 639.557 383.094 638.267 384.634C636.977 386.174 635.867 387.404 635.077 388.204C634.687 388.643 634.262 389.051 633.807 389.424Z" fill="#E0E0E0"/>
<path d="M505.117 254.544C498.807 219.294 468.537 188.544 432.847 185.614C413.397 184.024 393.847 190.164 374.477 187.824C358.059 185.772 342.953 177.804 331.987 165.414C315.987 147.214 310.577 121.324 293.637 104.004C270.267 80.1237 229.567 79.7437 201.167 97.3137C172.767 114.884 155.597 146.614 147.747 179.044L147.427 188.914C145.717 222.584 154.577 261.704 174.107 291.714C193.897 322.104 206.907 334.654 242.967 356.514C273.587 375.074 333.547 383.234 369.347 384.104C405.147 384.974 441.917 374.294 468.847 350.684C495.777 327.074 511.437 289.794 505.117 254.544Z" fill="#4564DF"/>
<g opacity="0.8">
<path d="M505.117 254.544C498.807 219.294 468.537 188.544 432.847 185.614C413.397 184.024 393.847 190.164 374.477 187.824C358.059 185.772 342.953 177.804 331.987 165.414C315.987 147.214 310.577 121.324 293.637 104.004C270.267 80.1237 229.567 79.7437 201.167 97.3137C172.767 114.884 155.597 146.614 147.747 179.044L147.427 188.914C145.717 222.584 154.577 261.704 174.107 291.714C193.897 322.104 206.907 334.654 242.967 356.514C273.587 375.074 333.547 383.234 369.347 384.104C405.147 384.974 441.917 374.294 468.847 350.684C495.777 327.074 511.437 289.794 505.117 254.544Z" fill="white"/>
</g>
<path d="M540.21 380.399C541.579 370.971 535.045 362.219 525.617 360.85C516.189 359.481 507.437 366.015 506.068 375.443C504.699 384.871 511.233 393.623 520.661 394.992C530.089 396.361 538.841 389.827 540.21 380.399Z" fill="#4564DF"/>
<path opacity="0.8" d="M540.21 380.399C541.579 370.971 535.045 362.219 525.617 360.85C516.189 359.481 507.437 366.015 506.068 375.443C504.699 384.871 511.233 393.623 520.661 394.992C530.089 396.361 538.841 389.827 540.21 380.399Z" fill="white"/>
<path d="M585.807 398.744C586.665 396.874 587.966 395.241 589.596 393.986C591.226 392.731 593.138 391.892 595.165 391.542C597.192 391.191 599.274 391.34 601.231 391.974C603.188 392.609 604.962 393.71 606.397 395.184C604.286 398.579 601.013 401.092 597.187 402.254C595.165 402.966 592.967 403.009 590.918 402.377C588.869 401.745 587.077 400.472 585.807 398.744Z" fill="#4564DF"/>
<path d="M578.707 400.384C579.625 399.973 580.588 399.675 581.577 399.494C583.387 399.054 585.907 398.554 588.697 398.094C591.487 397.634 594.027 397.284 595.877 397.094C596.867 396.917 597.872 396.84 598.877 396.864C597.894 397.139 596.891 397.337 595.877 397.454L588.777 398.614C585.997 399.074 583.477 399.514 581.657 399.864C580.685 400.096 579.7 400.27 578.707 400.384Z" fill="#434343"/>
<path d="M228.377 335.434C230.51 337.19 232.172 339.448 233.214 342.007C234.257 344.565 234.647 347.342 234.349 350.088C234.052 352.834 233.076 355.464 231.51 357.739C229.944 360.015 227.836 361.865 225.377 363.124C221.707 353.714 220.297 343.584 228.377 335.434Z" fill="#4564DF"/>
<path d="M242.267 342.614C242.461 346.182 243.539 349.647 245.405 352.695C247.27 355.743 249.865 358.28 252.954 360.076C256.044 361.872 259.532 362.872 263.104 362.985C266.676 363.098 270.22 362.321 273.417 360.724C266.417 349.724 256.947 340.454 242.267 342.614Z" fill="#4564DF"/>
<path d="M210.417 307.874C210.594 308.02 210.752 308.188 210.887 308.374L212.137 309.864C213.197 311.174 214.747 313.064 216.707 315.354C220.607 319.964 226.117 326.214 232.607 332.744C235.857 336.004 239.047 339.014 242.017 341.674C244.987 344.334 247.767 346.604 250.167 348.424C252.05 349.872 254.017 351.207 256.057 352.424C257.507 353.284 258.367 353.644 258.347 353.704C258.127 353.639 257.913 353.556 257.707 353.454C257.106 353.208 256.522 352.924 255.957 352.604C253.872 351.443 251.868 350.143 249.957 348.714C247.517 346.914 244.717 344.654 241.707 342.024C238.697 339.394 235.507 336.364 232.247 333.104C225.747 326.564 220.247 320.254 216.437 315.584C214.507 313.254 213.007 311.334 211.987 309.984L210.807 308.434C210.661 308.258 210.531 308.071 210.417 307.874Z" fill="#434343"/>
<path d="M227.607 349.664C227.517 349.664 227.847 348.254 228.137 345.984C228.87 340.044 228.23 334.017 226.267 328.364C225.517 326.204 224.907 324.914 224.987 324.874C225.196 325.139 225.368 325.432 225.497 325.744C225.916 326.556 226.29 327.39 226.617 328.244C228.79 333.907 229.429 340.044 228.467 346.034C228.327 346.933 228.136 347.825 227.897 348.704C227.838 349.034 227.741 349.356 227.607 349.664Z" fill="#434343"/>
<path d="M668.917 147.284C667.679 145.642 666.859 143.723 666.528 141.693C666.197 139.664 666.365 137.584 667.018 135.634C667.671 133.683 668.788 131.921 670.274 130.5C671.76 129.078 673.57 128.039 675.547 127.474C677.537 130.942 678.198 135.014 677.407 138.934C677.074 141.052 676.069 143.007 674.541 144.51C673.012 146.014 671.041 146.986 668.917 147.284Z" fill="#4564DF"/>
<path d="M666.997 154.324C667.063 153.304 667.254 152.296 667.567 151.324C668.037 149.524 668.797 147.074 669.717 144.394C670.637 141.714 671.537 139.314 672.217 137.594C672.532 136.639 672.941 135.718 673.437 134.844C673.227 135.823 672.936 136.783 672.567 137.714C671.907 139.624 671.097 141.964 670.207 144.564C669.317 147.164 668.477 149.664 667.917 151.424C667.357 153.184 667.067 154.334 666.997 154.324Z" fill="#434343"/>
<path d="M624.847 221.684C623.813 217.843 623.729 213.809 624.602 209.929C625.476 206.049 627.28 202.44 629.861 199.414C632.441 196.388 635.719 194.035 639.412 192.559C643.105 191.084 647.102 190.529 651.057 190.943C652.447 198.503 650.057 206.263 646.107 212.843C641.397 220.583 632.037 223.844 624.847 221.684Z" fill="#4564DF"/>
<path d="M595.267 251.284C595.396 251.092 595.539 250.911 595.697 250.744L596.987 249.274C598.137 248.024 599.817 246.274 601.907 244.024C606.107 239.624 611.967 233.604 618.487 227.024C625.007 220.444 630.937 214.484 635.257 210.214L640.397 205.214L641.817 203.854C641.975 203.689 642.149 203.542 642.337 203.414C642.204 203.601 642.053 203.775 641.887 203.934L640.537 205.354L635.537 210.514L618.877 227.424L602.267 244.274L597.267 249.414L595.907 250.814C595.715 250.997 595.5 251.155 595.267 251.284Z" fill="#434343"/>
<g opacity="0.3">
<path d="M624.847 221.684C623.813 217.843 623.729 213.809 624.602 209.929C625.476 206.049 627.28 202.44 629.861 199.414C632.441 196.388 635.719 194.035 639.412 192.559C643.105 191.084 647.102 190.529 651.057 190.943C652.447 198.503 650.057 206.263 646.107 212.843C641.397 220.583 632.037 223.844 624.847 221.684Z" fill="black"/>
</g>
<path d="M611.187 224.614C609.009 223.504 607.135 221.879 605.728 219.879C604.322 217.88 603.425 215.567 603.116 213.141C602.808 210.716 603.097 208.252 603.958 205.964C604.819 203.676 606.226 201.634 608.057 200.014C612.057 202.514 614.617 206.784 615.957 211.314C617.527 216.644 615.147 222.254 611.187 224.614Z" fill="#4564DF"/>
<g opacity="0.3">
<path d="M611.187 224.614C609.009 223.504 607.135 221.879 605.728 219.879C604.322 217.88 603.425 215.567 603.116 213.141C602.808 210.716 603.097 208.252 603.958 205.964C604.819 203.676 606.226 201.634 608.057 200.014C612.057 202.514 614.617 206.784 615.957 211.314C617.527 216.644 615.147 222.254 611.187 224.614Z" fill="black"/>
</g>
<path d="M612.747 233.173C612.608 232.884 612.507 232.579 612.447 232.263C612.277 231.663 612.087 230.793 611.877 229.713C611.457 227.543 611.017 224.533 610.617 221.193C610.217 217.853 609.937 214.823 609.767 212.633C609.623 211.449 609.576 210.255 609.627 209.063C609.877 210.227 610.047 211.407 610.137 212.593C610.407 214.923 610.757 217.863 611.137 221.133C611.517 224.403 611.917 227.473 612.237 229.643C612.557 231.813 612.827 233.153 612.747 233.173Z" fill="#434343"/>
<path d="M423.937 340.614C425.468 337 427.872 333.825 430.935 331.372C433.998 328.919 437.623 327.267 441.484 326.564C445.344 325.861 449.319 326.128 453.05 327.343C456.781 328.558 460.151 330.682 462.857 333.524C451.517 342.314 438.287 348.314 423.937 340.614Z" fill="#4564DF"/>
<g opacity="0.3">
<path d="M423.937 340.614C425.468 337 427.872 333.825 430.935 331.372C433.998 328.919 437.623 327.267 441.484 326.564C445.344 325.861 449.319 326.128 453.05 327.343C456.781 328.558 460.151 330.682 462.857 333.524C451.517 342.314 438.287 348.314 423.937 340.614Z" fill="black"/>
</g>
<path d="M417.527 344.073C417.797 343.804 418.1 343.569 418.427 343.373C419.027 342.943 419.917 342.373 421.057 341.713C427 338.278 433.587 336.103 440.407 335.323C441.707 335.183 442.767 335.113 443.497 335.103C443.876 335.051 444.259 335.051 444.637 335.103C444.637 335.183 443.027 335.293 440.457 335.663C433.735 336.64 427.239 338.796 421.267 342.033C418.937 343.263 417.577 344.143 417.527 344.073Z" fill="#434343"/>
<path d="M160.327 210.254C163.073 208.973 166.095 208.395 169.12 208.571C172.145 208.748 175.078 209.673 177.657 211.265C180.235 212.857 182.378 215.064 183.891 217.689C185.405 220.315 186.242 223.275 186.327 226.304C175.277 225.484 164.587 222.094 160.327 210.254Z" fill="#4564DF"/>
<g opacity="0.3">
<path d="M160.327 210.254C163.073 208.973 166.095 208.395 169.12 208.571C172.145 208.748 175.078 209.673 177.657 211.265C180.235 212.857 182.378 215.064 183.891 217.689C185.405 220.315 186.242 223.275 186.327 226.304C175.277 225.484 164.587 222.094 160.327 210.254Z" fill="black"/>
</g>
<path d="M154.837 208.964C155.129 208.916 155.426 208.916 155.717 208.964C156.287 209.024 157.097 209.144 158.087 209.344C163.288 210.42 168.202 212.584 172.507 215.694C173.16 216.154 173.787 216.648 174.387 217.174C174.817 217.554 175.037 217.774 175.017 217.804C174.997 217.834 174.017 217.104 172.297 215.994C167.929 213.095 163.095 210.968 158.007 209.704C156.057 209.254 154.827 209.044 154.837 208.964Z" fill="#434343"/>
<path d="M518.657 328.304C518.332 325.612 518.68 322.882 519.672 320.359C520.663 317.836 522.266 315.599 524.337 313.849C526.408 312.1 528.882 310.893 531.535 310.336C534.188 309.78 536.938 309.893 539.537 310.663C535.767 319.833 529.907 327.984 518.657 328.304Z" fill="#4564DF"/>
<path d="M516.027 332.614C516.335 331.68 516.754 330.786 517.277 329.954C518.455 327.897 519.846 325.97 521.427 324.204C523.008 322.442 524.771 320.853 526.687 319.464C527.452 318.844 528.296 318.329 529.197 317.934C529.197 317.994 528.317 318.634 526.917 319.754C523.246 322.666 520.095 326.179 517.597 330.144C517.125 330.998 516.6 331.823 516.027 332.614Z" fill="#434343"/>
<path d="M597.348 276.364C596.519 273.782 596.346 271.034 596.845 268.369C597.343 265.703 598.497 263.204 600.203 261.096C601.908 258.987 604.111 257.337 606.614 256.292C609.116 255.248 611.839 254.843 614.538 255.114C612.538 264.824 608.338 273.924 597.348 276.364Z" fill="#4564DF"/>
<g opacity="0.3">
<path d="M597.348 276.364C596.519 273.782 596.346 271.034 596.845 268.369C597.343 265.703 598.497 263.204 600.203 261.096C601.908 258.987 604.111 257.337 606.614 256.292C609.116 255.248 611.839 254.843 614.538 255.114C612.538 264.824 608.338 273.924 597.348 276.364Z" fill="black"/>
</g>
<path d="M595.577 281.084C595.7 280.11 595.945 279.156 596.307 278.244C597.075 275.999 598.08 273.844 599.307 271.814C600.524 269.78 601.959 267.886 603.587 266.164C604.226 265.41 604.955 264.738 605.757 264.164C605.164 264.937 604.529 265.678 603.857 266.384C602.337 268.164 600.963 270.063 599.747 272.064C598.554 274.073 597.521 276.172 596.657 278.344C596.353 279.278 595.992 280.193 595.577 281.084Z" fill="#434343"/>
<path d="M4.17725 204.844C4.7904 202.209 6.03588 199.763 7.80606 197.718C9.57624 195.673 11.8179 194.089 14.3372 193.104C16.8736 192.162 19.6013 191.851 22.2845 192.2C24.9677 192.548 27.5257 193.545 29.7372 195.104C23.1372 202.494 14.8972 208.234 4.17725 204.794" fill="#4564DF"/>
<path d="M0.267334 208.034C0.868853 207.258 1.56036 206.556 2.32733 205.944C4.1254 204.415 6.07562 203.075 8.14733 201.944C10.2271 200.803 12.4229 199.888 14.6973 199.214C15.6241 198.891 16.5888 198.689 17.5673 198.614C16.6661 198.997 15.7448 199.331 14.8073 199.614C12.5965 200.383 10.4527 201.333 8.39733 202.454C6.34874 203.578 4.3985 204.872 2.56733 206.324C1.83378 206.937 1.06587 207.508 0.267334 208.034Z" fill="#434343"/>
<path d="M461.267 74.3438L469.267 59.8638C464.117 51.6972 462.208 41.8994 463.916 32.3967C465.623 22.8939 470.824 14.3737 478.495 8.51108C486.167 2.64849 495.753 -0.132338 505.371 0.715318C514.989 1.56297 523.941 5.97779 530.469 13.0918C536.997 20.2058 540.627 29.5044 540.646 39.1593C540.665 48.8142 537.072 58.1271 530.573 65.267C524.073 72.4068 515.138 76.8571 505.524 77.7429C495.91 78.6287 486.312 75.8859 478.617 70.0538L461.267 74.3438Z" fill="white"/>
<path d="M461.267 74.3439L478.637 69.9439L478.567 70.1539L477.957 69.3839L478.757 69.9739C481.206 71.8257 483.865 73.383 486.677 74.6139C490.03 76.0613 493.573 77.021 497.197 77.4639C499.212 77.6923 501.244 77.7425 503.267 77.6139C504.267 77.5339 505.367 77.4939 506.437 77.3939L509.657 76.8639C519.212 74.869 527.652 69.3176 533.267 61.3339C536.386 56.9086 538.526 51.8703 539.547 46.5538C540.59 40.9304 540.378 35.1461 538.927 29.6138C537.432 23.8352 534.583 18.495 530.617 14.0338L529.047 12.3438C528.527 11.7738 527.917 11.3439 527.357 10.7838C526.806 10.255 526.225 9.75758 525.617 9.29385L523.777 7.94385C523.174 7.48898 522.539 7.07793 521.877 6.71385L519.937 5.61385L517.937 4.61385C517.29 4.27604 516.622 3.9788 515.937 3.72385C510.474 1.61557 504.604 0.767839 498.767 1.24385C493.271 1.66535 487.935 3.2904 483.137 6.00385C474.51 10.9025 468.089 18.9231 465.197 28.4138C464.05 32.4545 463.518 36.6447 463.617 40.8438C463.845 47.5773 465.845 54.1315 469.417 59.8438V59.9039V59.9739L461.267 74.3439C461.697 73.5739 464.147 69.0639 469.197 59.8038V59.9239C465.571 54.2026 463.525 47.6228 463.267 40.8539C463.148 36.613 463.67 32.3784 464.817 28.2938C467.726 18.7022 474.195 10.5873 482.897 5.61385C487.755 2.8533 493.158 1.19096 498.727 0.74385C504.614 0.264114 510.534 1.11513 516.047 3.23385C516.756 3.49025 517.447 3.79084 518.117 4.13385L520.177 5.13385L522.177 6.29385C522.846 6.67053 523.49 7.08799 524.107 7.54385L525.967 8.91385C526.607 9.35385 527.137 9.91385 527.737 10.4239C528.337 10.9339 528.927 11.4239 529.447 12.0038L531.037 13.7238C535.06 18.239 537.946 23.6488 539.457 29.5038C540.909 35.0945 541.111 40.9365 540.047 46.6138C539.023 52.0142 536.847 57.1303 533.667 61.6138C527.973 69.7045 519.408 75.3192 509.717 77.3139L506.457 77.8339C505.387 77.9339 504.317 77.9739 503.267 78.0439C501.227 78.1403 499.182 78.0532 497.157 77.7839C493.499 77.3243 489.926 76.3409 486.547 74.8639C483.705 73.6174 481.02 72.0398 478.547 70.1639L478.727 69.9739L478.857 70.1339H478.657L461.267 74.3439Z" fill="#434343"/>
<path d="M491.267 32.7536H496.267C496.258 32.1824 496.363 31.6151 496.578 31.0854C496.792 30.5558 497.11 30.0747 497.514 29.6707C497.918 29.2668 498.4 28.9482 498.929 28.7339C499.459 28.5197 500.026 28.4141 500.597 28.4236C501.449 28.3663 502.296 28.5829 503.016 29.0417C503.736 29.5005 504.29 30.1774 504.597 30.9736C504.869 31.6269 504.983 32.3352 504.929 33.0408C504.875 33.7463 504.655 34.4292 504.287 35.0336C503.447 36.4436 501.597 37.7436 498.207 37.1736L498.267 48.4436H503.267L503.197 41.8236C505.227 41.2052 506.998 39.9383 508.239 38.2169C509.48 36.4956 510.122 34.4149 510.067 32.2936C509.997 24.9636 503.407 23.2936 500.587 23.3536C498.407 23.3236 491.077 23.9136 491.267 32.7536Z" fill="#4564DF"/>
<path d="M503.315 50.7222L498.286 50.7705L498.331 55.4703L503.361 55.422L503.315 50.7222Z" fill="#4564DF"/>
<path d="M175.979 281.455V260.894L220.67 190.475H238.941V218.387H228.34L202.186 259.829V260.681H266.906V281.455H175.979ZM228.66 299.566V275.17L229.193 266.167V190.475H253.855V299.566H228.66ZM325.846 302.229C316.329 302.229 308.126 299.974 301.236 295.464C294.347 290.919 289.038 284.403 285.31 275.915C281.581 267.393 279.734 257.148 279.77 245.18C279.805 233.213 281.67 223.057 285.363 214.712C289.092 206.331 294.383 199.957 301.236 195.589C308.126 191.185 316.329 188.984 325.846 188.984C335.363 188.984 343.566 191.185 350.455 195.589C357.38 199.957 362.707 206.331 366.435 214.712C370.164 223.092 372.011 233.248 371.975 245.18C371.975 257.183 370.111 267.446 366.382 275.969C362.653 284.491 357.344 291.008 350.455 295.518C343.601 299.992 335.398 302.229 325.846 302.229ZM325.846 280.656C331.528 280.656 336.126 277.762 339.642 271.974C343.158 266.15 344.898 257.219 344.862 245.18C344.862 237.297 344.063 230.798 342.465 225.685C340.867 220.535 338.648 216.7 335.807 214.179C332.966 211.658 329.646 210.397 325.846 210.397C320.2 210.397 315.636 213.256 312.156 218.973C308.676 224.655 306.918 233.39 306.883 245.18C306.847 253.17 307.611 259.793 309.173 265.049C310.771 270.305 313.008 274.229 315.885 276.821C318.761 279.378 322.082 280.656 325.846 280.656ZM385.745 281.455V260.894L430.436 190.475H448.706V218.387H438.106L411.952 259.829V260.681H476.671V281.455H385.745ZM438.426 299.566V275.17L438.958 266.167V190.475H463.621V299.566H438.426Z" fill="#4564DF"/>
</svg>
